<svg id="Layer_1" data-name="Layer 1" xmlns="http://www.w3.org/2000/svg" viewBox="0 0 2000 2000"><defs><style>.cls-1{stroke:#000;stroke-miterlimit:10;stroke-width:8px;}</style></defs><title>marcelito</title><path class="cls-1" d="M1422.55,495.35q12.1,0,19.69,7.57a24.85,24.85,0,0,1,7.57,18.17v976.68a24.79,24.79,0,0,1-7.57,18.17q-7.6,7.59-19.69,7.57a25.85,25.85,0,0,1-25.74-25.74V586.2l-377,396.73q-7.6,7.59-19.69,7.57-13.64,0-19.68-7.57L557.93,537.75a25.6,25.6,0,0,1,0-36.35,27.44,27.44,0,0,1,37.85,0l404.3,425.5,402.79-424Q1413.45,495.36,1422.55,495.35ZM576.1,730.05q12.1,0,19.68,7.57a24.87,24.87,0,0,1,7.57,18.17v742a24.79,24.79,0,0,1-7.57,18.17q-7.59,7.59-19.68,7.57a25.85,25.85,0,0,1-25.74-25.74v-742a25.85,25.85,0,0,1,25.74-25.74Z"/><path d="M1444.76,230.45l449,777.72-449,777.73h-898l-449-777.73,449-777.72h898m0-50h-898a50,50,0,0,0-43.3,25L54.4,983.17a50,50,0,0,0,0,50l449,777.73a50,50,0,0,0,43.3,25h898a50,50,0,0,0,43.3-25l449-777.73a50,50,0,0,0,0-50l-449-777.72a50,50,0,0,0-43.3-25Z"/></svg>