<?xml version="1.0" standalone="no"?>
<!DOCTYPE svg PUBLIC "-//W3C//DTD SVG 20010904//EN"
 "http://www.w3.org/TR/2001/REC-SVG-20010904/DTD/svg10.dtd">
<svg version="1.0" xmlns="http://www.w3.org/2000/svg"
 width="281.000000pt" height="240.000000pt" viewBox="0 0 281.000000 240.000000"
 preserveAspectRatio="xMidYMid meet">

<g transform="translate(0.000000,240.000000) scale(0.100000,-0.100000)"
fill="#000000" stroke="none">
<path d="M620 1105 l0 -725 60 0 60 0 0 636 c0 390 4 634 9 632 5 -1 108 -99
228 -217 120 -118 253 -249 296 -290 l77 -76 43 43 42 42 -345 340 -345 339
-62 0 -63 1 0 -725z"/>
<path d="M2100 1105 l0 -725 60 0 60 0 0 725 0 725 -60 0 -60 0 0 -725z"/>
</g>
</svg>
