<svg id="Layer_1" data-name="Layer 1" xmlns="http://www.w3.org/2000/svg" viewBox="0 0 2000 2000"><defs><style>.cls-1{stroke:#000;stroke-miterlimit:10;stroke-width:8px;}</style></defs><title>marcelito</title><path d="M1834.71,196.44a12.49,12.49,0,0,1,12.49,12.49V1831.59a12.49,12.49,0,0,1-12.49,12.49H173a12.49,12.49,0,0,1-12.49-12.49V208.93A12.49,12.49,0,0,1,173,196.44H1834.71m0-50H173a62.56,62.56,0,0,0-62.49,62.49V1831.59A62.56,62.56,0,0,0,173,1894.08H1834.71a62.56,62.56,0,0,0,62.49-62.49V208.93a62.56,62.56,0,0,0-62.49-62.49Z"/><path class="cls-1" d="M1304.73,533.59q14.37,0,23.37,9a29.48,29.48,0,0,1,9,21.56v1159a29.42,29.42,0,0,1-9,21.57c-6,6-13.79,9-23.37,9a30.66,30.66,0,0,1-30.54-30.55V641.41l-447.44,470.8c-6,6-13.78,9-23.36,9-10.78,0-18.59-3-23.36-9L278.68,583.91a30.38,30.38,0,0,1,0-43.13q9-9,22.47-9t22.46,9l479.78,504.94,478-503.14C1289.74,536.6,1297.55,533.59,1304.73,533.59ZM300.25,812.12q14.36,0,23.36,9a29.51,29.51,0,0,1,9,21.57v880.49a29.42,29.42,0,0,1-9,21.57c-6,6-13.79,9-23.36,9a30.66,30.66,0,0,1-30.55-30.55V842.67a30.66,30.66,0,0,1,30.55-30.55Z"/></svg>