<svg id="Layer_1" data-name="Layer 1" xmlns="http://www.w3.org/2000/svg" viewBox="0 0 2000 2000"><title>m</title><path d="M1451.37,547.71a12.49,12.49,0,0,1,12.49,12.49v881.6a12.49,12.49,0,0,1-12.49,12.49H548.27a12.49,12.49,0,0,1-12.49-12.49V560.2a12.49,12.49,0,0,1,12.49-12.49h903.1m0-28H548.27a40.53,40.53,0,0,0-40.49,40.49v881.6a40.53,40.53,0,0,0,40.49,40.49h903.1a40.53,40.53,0,0,0,40.49-40.49V560.2a40.53,40.53,0,0,0-40.49-40.49Z"/><path d="M1165.38,733.22q7.9,0,12.85,4.94a16.21,16.21,0,0,1,5,11.87v637.73a16.14,16.14,0,0,1-5,11.86c-3.3,3.31-7.58,5-12.85,5a16.9,16.9,0,0,1-16.81-16.81V792.54l-246.19,259c-3.31,3.31-7.59,5-12.85,5-5.94,0-10.23-1.64-12.86-5L600.82,760.9a16.68,16.68,0,0,1,0-23.72,17.89,17.89,0,0,1,24.71,0l264,277.83,263-276.85C1157.13,734.87,1161.43,733.22,1165.38,733.22ZM612.68,886.47a17.42,17.42,0,0,1,12.85,4.95,16.23,16.23,0,0,1,5,11.86v484.48a16.18,16.18,0,0,1-5,11.86c-3.3,3.31-7.58,5-12.85,5a16.9,16.9,0,0,1-16.81-16.81V903.28a16.9,16.9,0,0,1,16.81-16.81Z"/></svg>