<svg id="Layer_1" data-name="Layer 1" xmlns="http://www.w3.org/2000/svg" viewBox="0 0 2000 2000"><title>m</title><path d="M1280.77,665.22a17.44,17.44,0,0,1,12.85,4.94,16.24,16.24,0,0,1,4.94,11.87v637.73a16.17,16.17,0,0,1-4.94,11.86c-3.31,3.31-7.59,5-12.85,5a16.88,16.88,0,0,1-16.81-16.81V724.54l-246.2,259.05c-3.3,3.31-7.58,4.95-12.85,4.95-5.93,0-10.23-1.64-12.85-4.95L716.2,692.9a16.71,16.71,0,0,1,0-23.72,17.91,17.91,0,0,1,24.72,0l264,277.83,263-276.85Q1274.82,665.23,1280.77,665.22ZM728.07,818.47a17.45,17.45,0,0,1,12.85,4.95,16.22,16.22,0,0,1,4.94,11.86v484.48a16.17,16.17,0,0,1-4.94,11.86c-3.31,3.31-7.59,5-12.85,5a16.88,16.88,0,0,1-16.81-16.81V835.28a16.88,16.88,0,0,1,16.81-16.81Z"/><path d="M1295.27,492.25l293.19,507.82L1295.27,1507.9H708.88L415.69,1000.07,708.88,492.25h586.39m0-24H708.88a24,24,0,0,0-20.78,12L394.91,988.07a24,24,0,0,0,0,24L688.1,1519.9a24,24,0,0,0,20.78,12h586.39a24,24,0,0,0,20.78-12l293.19-507.83a24,24,0,0,0,0-24L1316.05,480.25a24,24,0,0,0-20.78-12Z"/></svg>